Coordinates
version=1
nRows=10
nColumns=40
inDegrees=yes

Units are S.I. units (second, meters, Newtons, ...)
Angles are in degrees.

endheader
time	pelvis_tilt	pelvis_list	pelvis_rotation	pelvis_tx	pelvis_ty	pelvis_tz	hip_flexion_r	hip_adduction_r	hip_rotation_r	knee_angle_r	knee_angle_r_beta	ankle_angle_r	subtalar_angle_r	mtp_angle_r	hip_flexion_l	hip_adduction_l	hip_rotation_l	knee_angle_l	knee_angle_l_beta	ankle_angle_l	subtalar_angle_l	mtp_angle_l	lumbar_extension	lumbar_bending	lumbar_rotation	arm_flex_r	arm_add_r	arm_rot_r	elbow_flex_r	pro_sup_r	wrist_flex_r	wrist_dev_r	arm_flex_l	arm_add_l	arm_rot_l	elbow_flex_l	pro_sup_l	wrist_flex_l	wrist_dev_l
      6.70342857	     -5.66792539	     -2.46999246	     -4.67430853	      0.74421166	      0.92586128	      0.43816532	     26.15726003	     -1.70077638	    -15.36961835	     11.17145358	     11.17145358	      3.07523107	      9.70950640	      8.58762661	      4.77073898	     -1.78293591	    -13.84190547	     12.87648770	     12.87648770	     15.80502429	     -3.15535271	     -8.64852692	     -8.92001797	      1.51372127	      0.85199996	    -14.52628306	    -14.71907288	    -11.51022948	     25.43178369	     47.25849884	      0.00000000	      0.00000000	     16.85306666	    -15.64534183	     -8.87298741	     72.25619254	     47.20640296	      0.00000000	      0.00000000
      6.71685714	     -5.46330340	     -2.25892297	     -4.73722914	      0.74580643	      0.92521871	      0.43945585	     25.48401851	     -1.63565513	    -15.26023637	     10.83548480	     10.83548480	      2.55676234	      9.90528063	      7.99418033	      3.60888199	     -1.51869954	    -14.16495719	     12.21079668	     12.21079668	     16.13334360	     -2.38355838	     -8.51003788	     -8.91953699	      1.36156767	      1.23100380	    -15.58307141	    -14.80885563	    -11.65604364	     25.63668846	     47.23841887	      0.00000000	      0.00000000	     16.72384505	    -15.41883149	     -9.15995120	     74.18202910	     47.26452479	      0.00000000	      0.00000000
      6.73028571	     -5.40202309	     -2.12706618	     -4.70734578	      0.74730100	      0.92406647	      0.44098581	     25.13735487	     -1.54227416	    -14.77765434	     10.98462882	     10.98462882	      1.14663925	      9.23573144	      3.98672471	      3.04147757	     -1.51333994	    -14.50746662	     12.43561774	     12.43561774	     16.99853782	     -1.60981990	     -7.84044123	     -8.74946116	      1.30394146	      0.54388097	    -16.26487099	    -14.99338542	    -11.99185112	     27.14333169	     47.13493082	      0.00000000	      0.00000000	     15.72165382	    -15.75997736	    -10.09228247	     76.44792723	     47.39363724	      0.00000000	      0.00000000
      6.74371429	     -5.31105338	     -2.11911942	     -4.61750045	      0.74881079	      0.92325938	      0.44241876	     24.89107308	     -1.48151194	    -14.52709085	     11.67192146	     11.67192146	      1.02950876	      8.83527270	      3.60668894	      2.35026632	     -1.55727396	    -14.35710183	     12.42575607	     12.42575607	     17.40336049	     -1.51403308	     -7.86301653	     -8.60189680	      1.41231233	      0.51317808	    -16.65907805	    -15.13407552	    -12.00971354	     27.00702641	     47.13424822	      0.00000000	      0.00000000	     15.69773012	    -15.71579182	    -10.15770894	     76.60606060	     47.40336393	      0.00000000	      0.00000000
      6.75714286	     -5.25007795	     -2.00157775	     -4.58165968	      0.75026429	      0.92241898	      0.44411432	     24.94685093	     -1.52190199	    -13.68464490	     12.88732319	     12.88732319	      0.92316444	      7.60907339	      2.40324339	      1.71481493	     -1.50801565	    -14.35149710	     12.44227873	     12.44227873	     17.82704868	     -1.32888141	     -7.57955424	     -8.41606683	      1.33245004	      0.53506226	    -16.86945141	    -15.13490065	    -12.05232997	     27.11497618	     47.12022682	      0.00000000	      0.00000000	     15.61354047	    -15.61204640	    -10.32581558	     77.11349908	     47.42893998	      0.00000000	      0.00000000
      6.77057143	     -5.13646111	     -2.21688091	     -4.42235463	      0.75196243	      0.92198789	      0.44591558	     24.62296872	     -1.28353662	    -13.40963469	     13.69104831	     13.69104831	      1.03301688	      7.16883278	      1.95211660	      1.06221745	     -1.84877363	    -14.11836363	     12.58402061	     12.58402061	     18.18597002	     -1.34934569	     -7.55179924	     -8.28926433	      1.70130861	      0.43312151	    -17.01739230	    -15.07170918	    -12.06827321	     27.11599606	     47.11729416	      0.00000000	      0.00000000	     15.30229167	    -15.48559291	    -10.32888658	     77.13891905	     47.42900053	      0.00000000	      0.00000000
      6.78400000	     -5.04780809	     -2.24038116	     -4.30513125	      0.75331040	      0.92136965	      0.44799420	     24.67665373	     -1.05103332	    -11.75352169	     14.92007548	     14.92007548	      0.18757151	      4.04458010	     -1.68165377	      0.75982747	     -2.11654921	    -14.18645438	     13.38169085	     13.38169085	     19.30746358	     -0.89058893	     -5.70637198	     -8.26879017	      1.76674686	      0.02269634	    -16.83683826	    -15.08594139	    -12.28250105	     27.95779913	     47.05572751	      0.00000000	      0.00000000	     14.53482319	    -15.52876432	    -11.12008300	     78.30699014	     47.52133320	      0.00000000	      0.00000000
      6.79742857	     -4.85266549	     -2.39637266	     -4.13470612	      0.75486113	      0.92126992	      0.44996013	     24.57007354	     -0.94497920	    -11.44624347	     16.29967976	     16.29967976	      0.70697383	      3.31003687	     -2.27993292	      0.16748020	     -2.44127985	    -14.00768792	     13.75887045	     13.75887045	     19.53629874	     -0.94345079	     -5.55558683	     -8.30639701	      2.03489597	     -0.00911092	    -16.56900719	    -15.05242295	    -12.26580500	     28.06220336	     47.04637611	      0.00000000	      0.00000000	     14.28512245	    -15.40577965	    -11.11296212	     78.16213381	     47.51990956	      0.00000000	      0.00000000
      6.81085714	     -4.82315498	     -2.50750026	     -3.96163520	      0.75623099	      0.92104658	      0.45220442	     24.68772114	     -0.75419130	    -10.66741745	     17.68531755	     17.68531755	      1.26073281	      1.66522713	     -2.75318936	     -0.05527449	     -2.79876608	    -13.79433673	     14.47734739	     14.47734739	     19.89355359	     -1.09922713	     -5.04980959	     -8.16724062	      2.17518336	     -0.14967415	    -16.11416825	    -14.88516659	    -12.22124009	     28.33933983	     47.02234837	      0.00000000	      0.00000000	     13.84883200	    -15.31820159	    -11.19284945	     77.98804807	     47.52605347	      0.00000000	      0.00000000
      6.82428571	     -4.63463408	     -2.73018461	     -3.74942732	      0.75767081	      0.92132286	      0.45452177	     24.45359684	     -0.46086450	    -10.19467869	     18.77212556	     18.77212556	      1.89279183	      0.44000398	     -2.99603952	     -0.39459806	     -3.29145358	    -13.56164775	     15.29633762	     15.29633762	     20.12230614	     -1.31380404	     -4.63608700	     -8.24466783	      2.47859634	     -0.23637073	    -15.51480061	    -14.72887212	    -12.15695094	     28.67710673	     46.99885635	      0.00000000	      0.00000000	     13.39395550	    -15.19608224	    -11.20915100	     77.73446902	     47.52454759	      0.00000000	      0.00000000
